# xmcd
#
# Track frame offsets:
#	150
#	24439
#	41999
#	58139
#	80912
#	97922
#	118190
#	136985
#	159311
#	176001
#	193545
#	210025
#	229508
#	248845
#	268110
#	288525
#	309939
#	327094
#
# Disc length: 4611 seconds
#
# Revision: 0
# Processed by: cddbd v1.5.2PL0 Copyright (c) Steve Scherf et al.
# Submitted via: EZCDAudioConverter 3.1.2.1
#
DISCID=f7120112
DTITLE=DJ Promotion CD Pool Polska 226
DYEAR=2018
DGENRE=
TTITLE0=Mario Bischin - Nasza noc (Extended Mix)
TTITLE1=Milano - Największe serce (Original Mix)
TTITLE2=Top girls - Całą noc (Radio Edit)
TTITLE3=Marcin Siegieńczuk - Sąsiadka z boku (Tom Socket Extended Remix)
TTITLE4=Luka Rosi - Na niebiesko (Radio Edit)
TTITLE5=CRUMP - Będę Twoim wariatem (Extended Edit)
TTITLE6=Quest - Inna (Extended mix)
TTITLE7=Pudzian Band feat. Noizz Bros - Wnerwiona (Extended DJ Edit)
TTITLE8=Vice versa - Zjem Cię na śniadanie (Original Mix)
TTITLE9=Nicki - Zostań (Radio Edit)
TTITLE10=Skolim - Ola la la (Extended Mix)
TTITLE11=Sunset - Jedna na milion (Extended Edit)
TTITLE12=M-Power - Pocałuj mnie (Freaky Boys Remix)
TTITLE13=Bayera - Obrączki szczerozłote (DJ Sequence Extented Remix)
TTITLE14=Red Queen - Za szybko Tobie się oddałam (Toca Bass Extended Remix)
TTITLE15=Gesek - Będę walczył o Ciebie (Fairplay remix)
TTITLE16=Miłypan - Królowa (Fikoł and Fair Play Remix)
TTITLE17=Zajefajni - Płomienna miłość (Toca Bass Extended Remix)
EXTD=
EXTT0=
EXTT1=
EXTT2=
EXTT3=
EXTT4=
EXTT5=
EXTT6=
EXTT7=
EXTT8=
EXTT9=
EXTT10=
EXTT11=
EXTT12=
EXTT13=
EXTT14=
EXTT15=
EXTT16=
EXTT17=
PLAYORDER=
